<svg width="207" height="56" viewBox="0 0 207 56" fill="none" xmlns="http://www.w3.org/2000/svg">
<path d="M52.1231 29.4556C52.1231 30.5819 51.834 31.6485 51.3257 32.5755C51.2559 32.6951 51.1861 32.8247 51.1064 32.9443C49.9501 34.7385 47.9366 35.9347 45.644 35.9347H43.9793C40.0819 35.9347 36.9121 39.1045 36.9121 43.0019V49.5209C36.9121 50.5675 36.6629 51.5643 36.2144 52.4315C35.1578 54.5447 32.9648 56 30.433 56C30.2835 56 30.134 55.99 29.9844 55.9801V41.5765C29.9844 40.789 30.0542 40.0115 30.2037 39.2639C30.4131 38.0877 30.8018 36.9713 31.3201 35.9347C32.5362 33.5225 34.4999 31.5588 36.9121 30.3427C37.6198 29.9839 38.3774 29.6948 39.1549 29.4755C40.2314 29.1665 41.3777 29.007 42.5539 29.007H52.1031C52.1131 29.1565 52.1231 29.306 52.1231 29.4556Z" fill="#0341A7"/>
<path d="M56.7183 26.5258C56.7183 26.6753 56.7083 26.8249 56.6983 26.9644H42.5539C41.607 26.9644 40.68 26.8548 39.7928 26.6554C38.7761 26.4361 37.8092 26.0872 36.9121 25.6287C34.4999 24.4126 32.5362 22.449 31.3201 20.0367C31.0311 19.4686 30.7918 18.8805 30.6024 18.2624H30.5925C30.1938 17.0464 29.9844 15.7406 29.9844 14.3949V5.32415C30.134 5.31418 30.2835 5.30421 30.433 5.30421C31.2803 5.30421 32.0976 5.47367 32.8452 5.77271C32.9848 5.82255 33.1143 5.88235 33.2439 5.95213C35.4169 6.98878 36.9121 9.21162 36.9121 11.7833V12.9695C36.9121 16.8171 39.9822 19.947 43.7999 20.0367C43.8597 20.0467 43.9195 20.0467 43.9793 20.0467C44.0391 20.0467 44.0989 20.0467 44.1587 20.0367H50.2292C51.3655 20.0367 52.4321 20.3258 53.3591 20.8342C55.3626 21.9406 56.7183 24.0737 56.7183 26.5258Z" fill="#0341A7"/>
<path d="M26.8435 41.5765V50.9264C26.674 50.9363 26.5046 50.9463 26.3351 50.9463C25.5178 50.9463 24.7403 50.7968 24.0226 50.5177C23.8033 50.4379 23.594 50.3482 23.3846 50.2386C21.5406 49.3016 20.2148 47.5074 19.9158 45.3842V43.0019C19.9158 39.1045 16.746 35.9347 12.8486 35.9347H6.48909C5.39262 35.9347 4.35596 35.6655 3.44888 35.1871C1.3955 34.1006 0 31.9376 0 29.4556C0 29.306 0.00996833 29.1565 0.0199362 29.007H14.274C15.3107 29.007 16.3174 29.1366 17.2743 29.3758C18.2013 29.5951 19.0885 29.924 19.9158 30.3427C22.328 31.5588 24.2917 33.5225 25.5078 35.9347C25.8367 36.5826 26.1059 37.2704 26.3152 37.9781C26.6641 39.1144 26.8435 40.3305 26.8435 41.5765Z" fill="#0341A7"/>
<path d="M26.8414 0.0199362V14.3936C26.8414 15.2807 26.7517 16.1579 26.5623 16.9952C26.343 18.0618 25.9842 19.0885 25.5057 20.0354C24.2896 22.4476 22.3259 24.4113 19.9137 25.6274C19.2857 25.9464 18.6279 26.2155 17.9401 26.4149C16.7738 26.7737 15.5478 26.9631 14.2719 26.9631H4.99182C4.98185 26.8235 4.97189 26.674 4.97189 26.5245C4.97189 25.4579 5.23105 24.4612 5.6796 23.574C5.77928 23.3747 5.88893 23.1753 6.01851 22.9859C7.16482 21.2116 9.16836 20.0354 11.451 20.0354H12.6671C12.7269 20.0454 12.7867 20.0454 12.8465 20.0454C12.9063 20.0454 12.9661 20.0454 13.0259 20.0354C16.8436 19.9457 19.9137 16.8158 19.9137 12.9682V6.48909C19.9137 5.42252 20.1729 4.42573 20.6214 3.53859C21.688 1.43537 23.8809 0 26.4028 0C26.5523 0 26.7018 0.00996833 26.8414 0.0199362Z" fill="#0341A7"/>
<path d="M94.6251 13.2194H99.8997V32.2421C99.8997 34.3273 99.4069 36.1613 98.4211 37.7441C97.4449 39.327 96.0706 40.5639 94.2981 41.4548C92.5257 42.3363 90.4548 42.777 88.0852 42.777C85.7062 42.777 83.6305 42.3363 81.8581 41.4548C80.0857 40.5639 78.7113 39.327 77.7351 37.7441C76.7588 36.1613 76.2707 34.3273 76.2707 32.2421V13.2194H81.5453V31.8013C81.5453 33.0145 81.8107 34.095 82.3415 35.0429C82.8817 35.9907 83.64 36.7347 84.6162 37.275C85.5925 37.8057 86.7488 38.0711 88.0852 38.0711C89.4216 38.0711 90.578 37.8057 91.5542 37.275C92.54 36.7347 93.2982 35.9907 93.829 35.0429C94.3598 34.095 94.6251 33.0145 94.6251 31.8013V13.2194ZM110.552 29.5408V42.3363H105.405V20.4986H110.325V24.2093H110.58C111.083 22.9867 111.884 22.0151 112.983 21.2948C114.092 20.5745 115.462 20.2143 117.092 20.2143C118.599 20.2143 119.912 20.5366 121.03 21.1811C122.158 21.8256 123.03 22.7592 123.646 23.9819C124.272 25.2045 124.58 26.6879 124.57 28.4319V42.3363H119.424V29.228C119.424 27.7684 119.044 26.6263 118.286 25.8017C117.537 24.9771 116.5 24.5648 115.173 24.5648C114.272 24.5648 113.471 24.7638 112.77 25.1619C112.078 25.5505 111.533 26.1144 111.135 26.8537C110.746 27.593 110.552 28.4887 110.552 29.5408ZM134.949 13.2194V42.3363H129.802V13.2194H134.949ZM140.241 42.3363V20.4986H145.388V42.3363H140.241ZM142.829 17.3993C142.014 17.3993 141.312 17.1292 140.725 16.5889C140.137 16.0392 139.843 15.3804 139.843 14.6127C139.843 13.8355 140.137 13.1768 140.725 12.6365C141.312 12.0868 142.014 11.8119 142.829 11.8119C143.653 11.8119 144.355 12.0868 144.933 12.6365C145.52 13.1768 145.814 13.8355 145.814 14.6127C145.814 15.3804 145.52 16.0392 144.933 16.5889C144.355 17.1292 143.653 17.3993 142.829 17.3993ZM150.68 42.3363V20.4986H155.599V24.2093H155.855C156.31 22.9582 157.064 21.982 158.116 21.2806C159.168 20.5697 160.424 20.2143 161.883 20.2143C163.362 20.2143 164.608 20.5745 165.622 21.2948C166.646 22.0057 167.366 22.9772 167.783 24.2093H168.011C168.494 22.9961 169.309 22.0294 170.456 21.309C171.613 20.5792 172.982 20.2143 174.565 20.2143C176.574 20.2143 178.214 20.8493 179.484 22.1194C180.754 23.3895 181.389 25.2425 181.389 27.6783V42.3363H176.228V28.4745C176.228 27.1191 175.868 26.1287 175.148 25.5031C174.428 24.8681 173.546 24.5505 172.504 24.5505C171.262 24.5505 170.29 24.9392 169.589 25.7164C168.897 26.4841 168.551 27.484 168.551 28.7162V42.3363H163.504V28.2612C163.504 27.1333 163.163 26.2329 162.48 25.56C161.807 24.887 160.926 24.5505 159.836 24.5505C159.097 24.5505 158.424 24.7401 157.817 25.1192C157.211 25.4889 156.727 26.0149 156.367 26.6974C156.007 27.3703 155.827 28.157 155.827 29.0574V42.3363H150.68ZM186.611 42.3363V20.4986H191.757V42.3363H186.611ZM189.198 17.3993C188.383 17.3993 187.682 17.1292 187.094 16.5889C186.506 16.0392 186.213 15.3804 186.213 14.6127C186.213 13.8355 186.506 13.1768 187.094 12.6365C187.682 12.0868 188.383 11.8119 189.198 11.8119C190.023 11.8119 190.724 12.0868 191.302 12.6365C191.89 13.1768 192.184 13.8355 192.184 14.6127C192.184 15.3804 191.89 16.0392 191.302 16.5889C190.724 17.1292 190.023 17.3993 189.198 17.3993Z" fill="#0341A7"/>
<path d="M200.22 42.6491C199.358 42.6491 198.618 42.3458 198.002 41.7392C197.386 41.1326 197.083 40.3933 197.092 39.5213C197.083 38.6683 197.386 37.9384 198.002 37.3318C198.618 36.7252 199.358 36.4219 200.22 36.4219C201.054 36.4219 201.779 36.7252 202.395 37.3318C203.021 37.9384 203.338 38.6683 203.348 39.5213C203.338 40.0995 203.187 40.6255 202.893 41.0994C202.609 41.5733 202.229 41.9524 201.756 42.2368C201.291 42.5116 200.779 42.6491 200.22 42.6491Z" fill="#FF447C"/>
</svg>
